<?xml version="1.0" encoding="UTF-8" standalone="no"?>
<svg
   xmlns:dc="http://purl.org/dc/elements/1.1/"
   xmlns:cc="http://creativecommons.org/ns#"
   xmlns:rdf="http://www.w3.org/1999/02/22-rdf-syntax-ns#"
   xmlns:svg="http://www.w3.org/2000/svg"
   xmlns="http://www.w3.org/2000/svg"
   xmlns:sodipodi="http://sodipodi.sourceforge.net/DTD/sodipodi-0.dtd"
   xmlns:inkscape="http://www.inkscape.org/namespaces/inkscape"
   inkscape:export-ydpi="576"
   inkscape:export-xdpi="576"
   inkscape:export-filename="D:\Project Real\Maret 1\export\solid\png\22 - EPUB file.png"
   width="64pt"
   height="64pt"
   viewBox="0 0 22.577778 22.577778"
   version="1.1"
   id="svg831"
   inkscape:version="1.0 (4035a4fb49, 2020-05-01)"
   sodipodi:docname="23 - Curriculum vitae.svg">
  <defs
     id="defs825">
    <pattern
       id="EMFhbasepattern"
       patternUnits="userSpaceOnUse"
       width="6"
       height="6"
       x="0"
       y="0" />
    <pattern
       id="EMFhbasepattern-9"
       patternUnits="userSpaceOnUse"
       width="6"
       height="6"
       x="0"
       y="0" />
    <pattern
       id="EMFhbasepattern-0"
       patternUnits="userSpaceOnUse"
       width="6"
       height="6"
       x="0"
       y="0" />
    <pattern
       id="EMFhbasepattern-7"
       patternUnits="userSpaceOnUse"
       width="6"
       height="6"
       x="0"
       y="0" />
    <pattern
       id="EMFhbasepattern-2"
       patternUnits="userSpaceOnUse"
       width="6"
       height="6"
       x="0"
       y="0" />
    <pattern
       id="EMFhbasepattern-98"
       patternUnits="userSpaceOnUse"
       width="6"
       height="6"
       x="0"
       y="0" />
    <pattern
       id="EMFhbasepattern-6"
       patternUnits="userSpaceOnUse"
       width="6"
       height="6"
       x="0"
       y="0" />
    <pattern
       id="EMFhbasepattern-01"
       patternUnits="userSpaceOnUse"
       width="6"
       height="6"
       x="0"
       y="0" />
    <pattern
       id="EMFhbasepattern-07"
       patternUnits="userSpaceOnUse"
       width="6"
       height="6"
       x="0"
       y="0" />
    <pattern
       id="EMFhbasepattern-8"
       patternUnits="userSpaceOnUse"
       width="6"
       height="6"
       x="0"
       y="0" />
    <pattern
       id="EMFhbasepattern-4"
       patternUnits="userSpaceOnUse"
       width="6"
       height="6"
       x="0"
       y="0" />
    <pattern
       id="EMFhbasepattern-40"
       patternUnits="userSpaceOnUse"
       width="6"
       height="6"
       x="0"
       y="0" />
    <pattern
       id="EMFhbasepattern-08"
       patternUnits="userSpaceOnUse"
       width="6"
       height="6"
       x="0"
       y="0" />
    <pattern
       id="EMFhbasepattern-04"
       patternUnits="userSpaceOnUse"
       width="6"
       height="6"
       x="0"
       y="0" />
    <pattern
       id="EMFhbasepattern-014"
       patternUnits="userSpaceOnUse"
       width="6"
       height="6"
       x="0"
       y="0" />
    <pattern
       id="EMFhbasepattern-27"
       patternUnits="userSpaceOnUse"
       width="6"
       height="6"
       x="0"
       y="0" />
    <pattern
       id="EMFhbasepattern-09"
       patternUnits="userSpaceOnUse"
       width="6"
       height="6"
       x="0"
       y="0" />
    <pattern
       id="EMFhbasepattern-5"
       patternUnits="userSpaceOnUse"
       width="6"
       height="6"
       x="0"
       y="0" />
    <pattern
       id="EMFhbasepattern-018"
       patternUnits="userSpaceOnUse"
       width="6"
       height="6"
       x="0"
       y="0" />
  </defs>
  <sodipodi:namedview
     id="base"
     pagecolor="#ffffff"
     bordercolor="#666666"
     borderopacity="1.0"
     inkscape:pageopacity="0.0"
     inkscape:pageshadow="2"
     inkscape:zoom="6.2578125"
     inkscape:cx="42.666667"
     inkscape:cy="42.666667"
     inkscape:document-units="pt"
     inkscape:current-layer="layer1"
     showgrid="false"
     units="pt"
     inkscape:window-width="1366"
     inkscape:window-height="705"
     inkscape:window-x="-8"
     inkscape:window-y="-8"
     inkscape:window-maximized="1"
     inkscape:pagecheckerboard="true"
     inkscape:showpageshadow="false"
     inkscape:object-paths="true"
     inkscape:snap-intersection-paths="true"
     inkscape:snap-smooth-nodes="true"
     inkscape:snap-midpoints="true"
     showguides="true"
     inkscape:snap-bbox="true"
     inkscape:bbox-nodes="true"
     inkscape:snap-nodes="false"
     inkscape:snap-global="true"
     inkscape:document-rotation="0">
    <inkscape:grid
       type="xygrid"
       id="grid1378" />
    <sodipodi:guide
       position="0.97013831,21.607643"
       orientation="78.000048,0"
       id="guide1380"
       inkscape:locked="false" />
    <sodipodi:guide
       position="0.97013831,0.97013129"
       orientation="0,78.000005"
       id="guide1382"
       inkscape:locked="false" />
    <sodipodi:guide
       position="21.607639,0.97013129"
       orientation="-78.000048,0"
       id="guide1384"
       inkscape:locked="false" />
    <sodipodi:guide
       position="21.607639,21.607643"
       orientation="0,-78.000005"
       id="guide1386"
       inkscape:locked="false" />
  </sodipodi:namedview>
  <metadata
     id="metadata828">
    <rdf:RDF>
      <cc:Work
         rdf:about="">
        <dc:format>image/svg+xml</dc:format>
        <dc:type
           rdf:resource="http://purl.org/dc/dcmitype/StillImage" />
        <dc:title></dc:title>
      </cc:Work>
    </rdf:RDF>
  </metadata>
  <g
     inkscape:label="Icon"
     inkscape:groupmode="layer"
     id="layer1"
     transform="translate(0,-274.42223)">
    <path
       sodipodi:nodetypes="cssscscccssssssssssscccscccsssccsccccscssscccccccsccccscccccccssssssssscccccccsccscssssssssscccccsscccccsccccccccccccccccssssssssscccccccsccsc"
       d="m 14.900148,275.76234 c -3.05e-4,-0.21119 -0.159436,-0.36998 -0.369978,-0.36998 H 1.3548661 c -0.2105413,0 -0.36710028,0.15655 -0.36710028,0.3671 v 19.90332 c -1.4e-7,0.21055 0.15655898,0.3671 0.36710028,0.3671 H 15.368021 c -0.186625,-0.20906 -0.427008,-0.39018 -0.440519,-0.68778 z m -11.7011428,0.73492 h 2.9461602 c 0.6061387,0 1.107779,0.50093 1.107779,1.10706 v 4.42104 c 0,0.60613 -0.5016484,1.10706 -1.107779,1.10706 H 3.1990052 c -0.6061306,0 -1.1070592,-0.50093 -1.1070592,-1.10706 v -4.42104 c 0,-0.60613 0.5009202,-1.10706 1.1070592,-1.10706 z m 0,0.73708 c -0.2105412,0 -0.3699794,0.15946 -0.3699794,0.36998 v 4.42104 c -7e-6,-1.01333 0.8315238,-1.84198 1.8448589,-1.84198 -0.6062545,0 -1.1077827,-0.49864 -1.1077791,-1.1049 7.8e-6,-0.60624 0.5015327,-1.10705 1.1077791,-1.10705 0.6062467,0 1.1041725,0.50081 1.1041802,1.10705 3.8e-6,0.60626 -0.4979257,1.1049 -1.1041802,1.1049 1.0133359,0 1.8419868,0.82865 1.8419798,1.84198 v -4.42104 c 0,-0.21052 -0.1601582,-0.36998 -0.3706991,-0.36998 z m 5.1581194,0 h 5.3351924 c 0.20354,7.9e-4 0.367897,0.16644 0.367101,0.36998 -7.75e-4,0.20242 -0.164685,0.36631 -0.367101,0.36711 H 8.3571246 c -0.2024161,-7.8e-4 -0.3663113,-0.16469 -0.3671004,-0.36711 -8.108e-4,-0.20354 0.1635609,-0.36919 0.3671004,-0.36998 z m -3.6832399,1.47416 c -0.2079019,0 -0.3699769,0.16209 -0.3699794,0.36998 -1.2e-6,0.20791 0.1620746,0.36782 0.3699794,0.36782 0.2079051,0 0.3671016,-0.15991 0.3671005,-0.36782 -2.7e-6,-0.20789 -0.1591983,-0.36998 -0.3671005,-0.36998 z m 3.6832399,0.7378 h 2.4379784 c 0.204665,-8.2e-4 0.370781,0.16531 0.36998,0.36997 -8.11e-4,0.20355 -0.16644,0.36791 -0.36998,0.36711 H 8.3571246 c -0.2024161,-7.8e-4 -0.3663113,-0.16469 -0.3671004,-0.36711 -7.964e-4,-0.20353 0.1635609,-0.36917 0.3671004,-0.36997 z m -3.6832399,1.47416 c -0.6149821,0 -1.1077831,0.48991 -1.1077791,1.1049 v 0.36998 h 2.2119593 v -0.36998 c 4e-6,-0.61499 -0.4891972,-1.1049 -1.1041802,-1.1049 z m 3.6832399,0.73708 h 4.3231464 c 0.202696,7.7e-4 0.366706,0.16512 0.3671,0.36782 8.11e-4,0.20354 -0.16356,0.36919 -0.3671,0.36998 H 8.3571246 c -0.2035395,-7.9e-4 -0.3678968,-0.16644 -0.3671004,-0.36998 3.943e-4,-0.2027 0.1644046,-0.36704 0.3671004,-0.36782 z m -5.5280988,2.94904 h 1.4748795 c 0.4019605,0 0.7370799,0.33583 0.7370799,0.73779 v 1.47129 c 0,0.40196 -0.3351024,0.73779 -0.7370799,0.73779 H 2.8290258 c -0.4019775,0 -0.7370798,-0.33583 -0.7370798,-0.73779 v -1.47129 c 0,-0.40196 0.335119,-0.73779 0.7370798,-0.73779 z m 0,0.73779 v 1.47129 h 1.4748795 v -1.47129 z m 3.3161396,1.10419 h 7.4082276 c 0.203541,-8.1e-4 0.369188,0.16355 0.369981,0.3671 8.1e-4,0.20466 -0.165315,0.37078 -0.369981,0.36998 H 6.1451654 c -0.2035395,-8.2e-4 -0.3678968,-0.16644 -0.3671005,-0.36998 7.74e-4,-0.20242 0.1646844,-0.36631 0.3671005,-0.3671 z m -3.3161396,1.84198 h 1.4748795 c 0.4019605,0 0.7370799,0.33512 0.7370799,0.73708 v 1.47488 c 0,0.40197 -0.3351024,0.73707 -0.7370799,0.73707 H 2.8290258 c -0.4019775,0 -0.7370798,-0.3351 -0.7370798,-0.73707 v -1.47488 c 0,-0.40196 0.335119,-0.73708 0.7370798,-0.73708 z m 0,0.73708 v 1.47488 h 1.4748795 v -1.47488 z m 17.4710972,0.0813 c -0.396411,0 -0.75013,0.10335 -0.978935,0.24473 -0.228807,0.14141 -0.310233,0.28913 -0.310235,0.41101 v 4.03163 l 2.579059,0.0195 v -4.05106 c -1e-6,-0.12188 -0.08143,-0.26888 -0.310235,-0.41028 -0.228804,-0.14136 -0.583242,-0.24546 -0.979654,-0.24546 z m -1.610203,0.0111 h -3.036135 l 0.01086,6.15361 c 0.05914,0.27941 0.172158,0.42536 0.380776,0.54417 0.207968,0.1184 0.531789,0.18708 0.92495,0.20658 0.362333,-0.0547 0.706668,-0.1007 0.92207,-0.19865 0.22556,-0.10252 0.334917,-0.19943 0.381496,-0.53842 l 0.0025,-5.55438 c 0.04794,-0.29134 0.258907,-0.42753 0.413541,-0.61291 z m -12.5447546,1.01421 h 7.3650406 c 0.202697,7.9e-4 0.366706,0.16512 0.3671,0.36782 8.11e-4,0.20353 -0.163561,0.36918 -0.3671,0.36997 H 6.1451654 c -0.2035395,-7.9e-4 -0.3678968,-0.16644 -0.3671005,-0.36997 4.055e-4,-0.2027 0.1644047,-0.36703 0.3671005,-0.36782 z m -3.3161396,1.84198 h 1.4748795 c 0.4019605,0 0.7370799,0.3351 0.7370799,0.73708 v 1.47488 c 0,0.40196 -0.3351024,0.73707 -0.7370799,0.73707 H 2.8290258 c -0.4019775,0 -0.7370798,-0.33511 -0.7370798,-0.73707 v -1.47488 c 0,-0.40198 0.335119,-0.73708 0.7370798,-0.73708 z m 0,0.73708 v 1.47488 h 1.4748795 v -1.47488 z m 3.3161396,1.1049 h 7.3650406 c 0.203539,8e-4 0.367897,0.16643 0.3671,0.36998 -7.73e-4,0.20242 -0.164683,0.36631 -0.3671,0.3671 H 6.1451654 c -0.2024161,-7.8e-4 -0.3663114,-0.16468 -0.3671005,-0.3671 -8.107e-4,-0.20355 0.163561,-0.36919 0.3671005,-0.36998 z"
       style="color:#000000;font-style:normal;font-variant:normal;font-weight:normal;font-stretch:normal;font-size:medium;line-height:normal;font-family:sans-serif;font-variant-ligatures:normal;font-variant-position:normal;font-variant-caps:normal;font-variant-numeric:normal;font-variant-alternates:normal;font-variant-east-asian:normal;font-feature-settings:normal;font-variation-settings:normal;text-indent:0;text-align:start;text-decoration:none;text-decoration-line:none;text-decoration-style:solid;text-decoration-color:#000000;letter-spacing:normal;word-spacing:normal;text-transform:none;writing-mode:lr-tb;direction:ltr;text-orientation:mixed;dominant-baseline:auto;baseline-shift:baseline;text-anchor:start;white-space:normal;shape-padding:0;shape-margin:0;inline-size:0;clip-rule:nonzero;display:inline;overflow:visible;visibility:visible;isolation:auto;mix-blend-mode:normal;color-interpolation:sRGB;color-interpolation-filters:linearRGB;solid-color:#000000;solid-opacity:1;vector-effect:none;fill:#000000;fill-opacity:1;fill-rule:nonzero;stroke:none;stroke-width:0.529167;stroke-linecap:round;stroke-linejoin:round;stroke-miterlimit:4;stroke-dasharray:none;stroke-dashoffset:0;stroke-opacity:1;color-rendering:auto;image-rendering:auto;shape-rendering:auto;text-rendering:auto;enable-background:accumulate;stop-color:#000000"
       id="path1446" />
  </g>
</svg>
